<svg xmlns="http://www.w3.org/2000/svg" viewBox="0 0 1556.28 693.5"><defs><style>.a,.b,.c,.d{fill:none;stroke:#000;stroke-linecap:round;}.a,.c,.d{stroke-linejoin:round;}.a,.b{stroke-width:5px;}.b{stroke-miterlimit:10;}.c{stroke-width:4px;}.d{stroke-width:3px;}</style></defs><title>Львівска пс</title><path d="M948.62,248.3c1.14-1.44,2.26-2.88,3.34-4.3,15.73-20.78,20.56-30.28,16.43-33.4s-13.32,3.38-29,24.16c-1.24,1.63-2.47,3.31-3.68,5L889,238.38a1.07,1.07,0,0,0-.95.49l-.27.4a1.1,1.1,0,0,0,.68,1.69L929,249.62c-7.84,12.16-14.41,24.37-17.17,31.24l-16.14,1.29a.55.55,0,0,0-.12,1.08l12,3.79a89.32,89.32,0,0,1-12.63,15.28l-2.13,2-.53.49-.56.47-1.11.93c-1.46,1.27-3,2.41-4.56,3.59a99.21,99.21,0,0,1-9.82,6.23,102.14,102.14,0,0,1-33,11c-1.92.31-3.86.54-5.79.72-1,.09-1.93.16-2.9.22s-1.95.09-2.86.09h-.14l-2.45.13c-.82,0-1.63,0-2.45,0l-.33,0c.21-.33.39-.67.59-1s.37-.7.54-1.06a19.67,19.67,0,0,0,1.53-4.49l.12-.58c0-.2.06-.4.09-.59.05-.4.11-.79.15-1.19a19.06,19.06,0,0,0,0-2.39l0-.6a5.63,5.63,0,0,0,0-.59l-.18-1.19a8.83,8.83,0,0,0-.24-1.16l-.29-1.16a.69.69,0,0,0,0-.13v0c-.12-.23-.21-.39-.32-.58s-.21-.35-.32-.53c-.22-.34-.45-.68-.7-1a13.65,13.65,0,0,0-1.65-1.84,11.35,11.35,0,0,0-4.3-2.59,10.36,10.36,0,0,0-5.06-.3c-.42,0-.82.18-1.23.27s-.79.24-1.18.4l-.58.23a2.6,2.6,0,0,0-.34.16l-.29.17a9,9,0,0,0-1.06.72,10.27,10.27,0,0,0-3.18,4,9.51,9.51,0,0,0-.66,5.12,14.49,14.49,0,0,0,1.54,4.71,25.83,25.83,0,0,0,2.58,4l-.06-.09a5.88,5.88,0,0,0,.52.65,6.44,6.44,0,0,0,.51.53,13.16,13.16,0,0,0,1.08.92c.37.3.77.53,1.15.79l1.2.68a21.59,21.59,0,0,0,5.1,1.77l.87.19a27.2,27.2,0,0,1-3.58,3.77,23.51,23.51,0,0,1-6,3.76,23.75,23.75,0,0,1-3.35,1.17,24.5,24.5,0,0,1-3.5.65,24.89,24.89,0,0,1-3.56.16c-.6,0-1.19-.06-1.78-.12a17.06,17.06,0,0,1-1.71-.26h-.07l-1.13-.22.16-.13c.21-.21.45-.41.64-.63l.3-.34.28-.35a12.81,12.81,0,0,0,1.73-3.08l.29-.83c.1-.27.16-.56.24-.84a16.8,16.8,0,0,0,.37-1.71c.1-.57.14-1.15.21-1.73s.05-1.15.07-1.73v-.06h0a7.57,7.57,0,0,0-.33-1.42,6.07,6.07,0,0,0-.25-.67,4.12,4.12,0,0,0-.3-.64,7.57,7.57,0,0,0-1.73-2.29,8.47,8.47,0,0,0-5.25-2.06l-.35,0h-.35l-.71,0-.35,0h-.18l-.21,0L791,321a9.46,9.46,0,0,0-2.59,1.18,8.07,8.07,0,0,0-2.12,2,8,8,0,0,0-1.28,2.6,10.09,10.09,0,0,0-.38,2.82c0,.47,0,.94.07,1.4l.09.69,0,.18,0,.12,0,.09a2.8,2.8,0,0,0,.1.37,10.41,10.41,0,0,0,3.27,4.63,17.27,17.27,0,0,0,4.78,2.78l1.13.41a12.77,12.77,0,0,1-2.36,1.35,19.59,19.59,0,0,1-4.22,1.27,37.37,37.37,0,0,1-8.91.5,41.78,41.78,0,0,1-4.47-.46,30.24,30.24,0,0,1-3-.59,13.36,13.36,0,0,0,1.16-.81,9.45,9.45,0,0,0,1.56-1.6,6.49,6.49,0,0,0,1-2,6.21,6.21,0,0,0,.26-2.23,7.27,7.27,0,0,0-.38-2.28,5.85,5.85,0,0,0-1.16-2,5.07,5.07,0,0,0-1.91-1.36,6.25,6.25,0,0,0-1.11-.36,11.17,11.17,0,0,0-1.16-.17,3,3,0,0,0-.61,0,5.4,5.4,0,0,0-.58.11,5.65,5.65,0,0,0-1.12.37,4.73,4.73,0,0,0-1.88,1.44,3.36,3.36,0,0,0-.35.49l-.15.26c0,.09-.09.18-.13.27s-.16.36-.22.55l-.16.57a2.94,2.94,0,0,0-.1.58l-.07.58c0,.37,0,.74,0,1.11A4,4,0,0,0,764,337a4.09,4.09,0,0,0,.1.61l.07.3a2.46,2.46,0,0,0,.09.29,6,6,0,0,0,.53,1.11,6.29,6.29,0,0,0,.74,1,10.25,10.25,0,0,0,4,2.45,5.51,5.51,0,0,1-.7.31,10.27,10.27,0,0,1-1.56.43A29.89,29.89,0,0,1,764,344c-2.21.19-4.42.24-6.64.24-4.44,0-8.87-.2-13.3-.46s-8.86-.62-13.28-1-8.84-.85-13.26-1.37c4.41.56,8.82,1.05,13.24,1.5s8.85.84,13.28,1.16,8.87.55,13.32.6c2.22,0,4.45,0,6.67-.18a31.42,31.42,0,0,0,3.34-.42,12,12,0,0,0,1.64-.43,4.84,4.84,0,0,0,1.16-.58,26.29,26.29,0,0,0,3.89.87,43.56,43.56,0,0,0,4.56.51,38.11,38.11,0,0,0,9.17-.42,20.77,20.77,0,0,0,4.47-1.3,13.38,13.38,0,0,0,3.29-2l.1,0A10.11,10.11,0,0,0,797,341l1.27.26a17.63,17.63,0,0,0,1.93.32c.64.07,1.27.12,1.91.14a25.68,25.68,0,0,0,3.82-.13,26.91,26.91,0,0,0,3.76-.66,25.8,25.8,0,0,0,3.63-1.22,25.35,25.35,0,0,0,6.52-4,29.59,29.59,0,0,0,4.61-4.95c.7.08,1.39.13,2.09.18.87,0,1.75,0,2.62,0l2.53-.11c1,0,2,0,3-.06s2-.11,3-.19c2-.17,4-.39,6-.68a106.61,106.61,0,0,0,11.77-2.37,97.74,97.74,0,0,0,32.63-15c1.61-1.21,3.25-2.38,4.78-3.69l1.17-1,.58-.48.56-.51,2.24-2a93,93,0,0,0,13.32-15.77l6.83,9.76a.55.55,0,0,0,1-.42l-2.86-14.65c5.84-4.72,15.75-14.95,25.26-26.1l19.58,37.25a1.14,1.14,0,0,0,1.87.21l.27-.31a1.15,1.15,0,0,0,.22-1.08ZM765.53,338.9a5.32,5.32,0,0,1-.45-.93l-.09-.24,0-.26a2.71,2.71,0,0,1-.09-.51,3.6,3.6,0,0,1,0-1v0a.34.34,0,0,0,0-.1,5.77,5.77,0,0,1,1-3.94,4.16,4.16,0,0,1,1.59-1.24,6.52,6.52,0,0,1,1-.33l.51-.1a3,3,0,0,1,.49,0c.35.06.7.07,1,.15a5.72,5.72,0,0,1,1,.32,4.27,4.27,0,0,1,1.68,1.16,5.94,5.94,0,0,1,1.41,3.84v0h0a5.67,5.67,0,0,1-1.13,3.86,9,9,0,0,1-1.45,1.51,9.91,9.91,0,0,1-1.54,1l-.55-.2a9.36,9.36,0,0,1-3.68-2.2A5.27,5.27,0,0,1,765.53,338.9Zm23.78-3.09a9.7,9.7,0,0,1-1.69-1.76,7.21,7.21,0,0,1-1.13-2.09c0-.09-.06-.18-.08-.26l0-.11,0-.15-.08-.62c0-.41-.08-.82-.08-1.23a8.72,8.72,0,0,1,.29-2.4,6.52,6.52,0,0,1,2.74-3.75,8.59,8.59,0,0,1,2.19-1l.58-.14.1,0h.46l.62,0h.31l.3,0a7,7,0,0,1,4.42,1.65,6.4,6.4,0,0,1,1.45,1.88,5.52,5.52,0,0,1,.26.55,4.79,4.79,0,0,1,.21.57,5.31,5.31,0,0,1,.28,1.11l0,1.6c-.06.54-.09,1.09-.18,1.62s-.17,1.07-.32,1.59c-.08.26-.12.53-.22.78l-.26.76a11.42,11.42,0,0,1-1.52,2.79l-.24.32-.27.29c-.17.2-.36.37-.55.56a6.9,6.9,0,0,1-.6.47,3.28,3.28,0,0,1-.31.2h0l-1.06-.28-1.19-.42A15.29,15.29,0,0,1,789.31,335.81Zm28-9.72c-.35-.18-.69-.37-1-.56s-.66-.4-1-.64a8.54,8.54,0,0,1-.86-.71c-.12-.13-.26-.25-.37-.38l-.17-.19-.11-.14-.07-.09a23.71,23.71,0,0,1-2.36-3.6,12.08,12.08,0,0,1-1.33-3.88,7.12,7.12,0,0,1,.44-3.81,7.76,7.76,0,0,1,2.4-3.07,8.51,8.51,0,0,1,.81-.57l.21-.12a.91.91,0,0,1,.17-.08l.47-.19c.31-.13.65-.22,1-.34s.66-.19,1-.23a8.07,8.07,0,0,1,3.94.18,9.1,9.1,0,0,1,3.45,2.05,11.51,11.51,0,0,1,1.41,1.54c.21.27.42.56.61.85l.27.44c.07.11.14.24.19.34l.25.95a7.29,7.29,0,0,1,.23,1l.16,1a3.19,3.19,0,0,1,.06.53l0,.53a16.52,16.52,0,0,1,0,2.11c0,.35-.08.7-.12,1.05,0,.17,0,.35-.07.52l-.11.52a17.53,17.53,0,0,1-1.32,4l-.48,1c-.18.31-.35.62-.53.92s-.37.59-.57.87a21.51,21.51,0,0,1-2.13-.36A18.89,18.89,0,0,1,817.34,326.09Z" transform="translate(-20.86 -198)"/><path class="a" d="M1508.94,538.34s-5.88,1.2-7.39,7.11v17.94h14.78V545.45C1514.83,539.54,1508.94,538.34,1508.94,538.34Z" transform="translate(-20.86 -198)"/><path class="a" d="M1508.3,843.83s-6.73,2.17-8.45,12.83V889h16.89V856.66C1515,846,1508.3,843.83,1508.3,843.83Z" transform="translate(-20.86 -198)"/><path class="a" d="M1508.3,755.14s-6.73,2.17-8.45,12.83v32.34h16.89V768C1515,757.31,1508.3,755.14,1508.3,755.14Z" transform="translate(-20.86 -198)"/><path class="a" d="M1508.3,690.27s-6.73,2.16-8.45,12.82v32.34h16.89V703.09C1515,692.43,1508.3,690.27,1508.3,690.27Z" transform="translate(-20.86 -198)"/><path class="a" d="M1356.19,666.35s-6.86,3.19-8.62,18.89v47.63h17.25V685.24C1363.06,669.54,1356.19,666.35,1356.19,666.35Z" transform="translate(-20.86 -198)"/><path class="a" d="M1383.71,666.35s-6.87,3.19-8.63,18.89v47.63h17.25V685.24C1390.57,669.54,1383.71,666.35,1383.71,666.35Z" transform="translate(-20.86 -198)"/><path class="a" d="M1411.22,666.35s-6.87,3.19-8.63,18.89v47.63h17.25V685.24C1418.08,669.54,1411.22,666.35,1411.22,666.35Z" transform="translate(-20.86 -198)"/><path class="a" d="M1438.73,666.35s-6.87,3.19-8.63,18.89v47.63h17.25V685.24C1445.59,669.54,1438.73,666.35,1438.73,666.35Z" transform="translate(-20.86 -198)"/><path class="a" d="M1073.08,670.56s-10,7.94-12.52,47V836h25V717.55C1083.05,678.5,1073.08,670.56,1073.08,670.56Z" transform="translate(-20.86 -198)"/><path class="a" d="M1116.61,670.56s-10,7.94-12.53,47V836h25.05V717.55C1126.58,678.5,1116.61,670.56,1116.61,670.56Z" transform="translate(-20.86 -198)"/><path class="a" d="M817.67,544.61a.58.58,0,0,0,0,.14v14.94h15.32V544.75s0-.1-.05-.14C831.54,540.63,819,540.63,817.67,544.61Z" transform="translate(-20.86 -198)"/><path class="a" d="M681.68,771.72c-.21,1.12-.39,2.33-.52,3.65V815.5h13.55V775.37c-.14-1.32-.32-2.53-.53-3.65C692.51,762.75,683.35,762.75,681.68,771.72Z" transform="translate(-20.86 -198)"/><path class="a" d="M958.43,771.72c-.21,1.12-.39,2.33-.52,3.65V815.5h13.55V775.37c-.14-1.32-.32-2.53-.53-3.65C969.26,762.75,960.1,762.75,958.43,771.72Z" transform="translate(-20.86 -198)"/><path class="a" d="M731,750.12c0,.22-.08.43-.11.65v66h34.49v-66c0-.22-.07-.43-.11-.65C762.18,732.58,734,732.58,731,750.12Z" transform="translate(-20.86 -198)"/><path class="a" d="M809.37,750.12c0,.22-.07.43-.1.65v66h34.49v-66c0-.22-.08-.43-.11-.65C840.6,732.58,812.42,732.58,809.37,750.12Z" transform="translate(-20.86 -198)"/><path class="a" d="M885.75,750.12c0,.22-.08.43-.11.65v66h34.49v-66c0-.22-.07-.43-.11-.65C917,732.58,888.79,732.58,885.75,750.12Z" transform="translate(-20.86 -198)"/><rect class="a" x="2.5" y="523.06" width="18.07" height="167.53"/><polyline class="a" points="20.57 690.59 208.63 689.77 208.63 507.46 113.36 390.02 20.57 509.1"/><polyline class="a" points="35.35 490.21 35.35 452.44 27.96 423.69 20.57 452.44 20.57 525.02"/><ellipse class="a" cx="114.19" cy="427.8" rx="10.68" ry="12.32"/><ellipse class="a" cx="139.64" cy="455.31" rx="10.68" ry="12.32"/><ellipse class="a" cx="165.92" cy="488.98" rx="10.68" ry="12.32"/><ellipse class="a" cx="89.55" cy="455.31" rx="10.68" ry="12.32"/><ellipse class="a" cx="62.45" cy="488.98" rx="10.68" ry="12.32"/><path class="a" d="M135.05,664.4s-35.32,9.85-44.35,58.3v147h88.69v-147C170.36,674.25,135.05,664.4,135.05,664.4Z" transform="translate(-20.86 -198)"/><path class="a" d="M135.46,681.41s-24.2,8.23-30.39,48.7V852.87h60.77V730.11C159.65,689.64,135.46,681.41,135.46,681.41Z" transform="translate(-20.86 -198)"/><line class="a" x1="100.22" y1="515.67" x2="100.22" y2="640.5"/><line class="a" x1="115.42" y1="515.67" x2="115.42" y2="640.5"/><line class="a" x1="130.61" y1="515.67" x2="130.61" y2="640.5"/><polyline class="a" points="193.64 488.98 193.84 450.79 200.41 423.69 208.63 447.51"/><line class="b" x1="113.77" y1="390.44" x2="113.77" y2="352.66"/><line class="b" x1="104.33" y1="367.85" x2="124.04" y2="367.85"/><path class="a" d="M358.32,739.78S341,746,336.55,776.64v92.92h43.53V776.64C375.64,746,358.32,739.78,358.32,739.78Z" transform="translate(-20.86 -198)"/><path class="a" d="M358.32,748.53s-11.94,5.39-15,31.89v80.39h30V780.42C370.25,753.92,358.32,748.53,358.32,748.53Z" transform="translate(-20.86 -198)"/><line class="a" x1="331.81" y1="578.08" x2="331.81" y2="651.99"/><line class="a" x1="343.3" y1="578.08" x2="343.3" y2="651.99"/><path class="a" d="M429.76,739.78S412.43,746,408,776.64v92.92h43.52V776.64C447.09,746,429.76,739.78,429.76,739.78Z" transform="translate(-20.86 -198)"/><path class="a" d="M429.76,748.53s-11.93,5.39-15,31.89v80.39h30V780.42C441.7,753.92,429.76,748.53,429.76,748.53Z" transform="translate(-20.86 -198)"/><line class="a" x1="403.25" y1="578.08" x2="403.25" y2="651.99"/><line class="a" x1="414.75" y1="578.08" x2="414.75" y2="651.99"/><path class="a" d="M497.92,740.6s-17.33,6.23-21.76,36.86v92.92h43.52V777.46C515.25,746.83,497.92,740.6,497.92,740.6Z" transform="translate(-20.86 -198)"/><path class="a" d="M497.92,749.35s-11.93,5.39-15,31.89v80.39h30V781.24C509.86,754.74,497.92,749.35,497.92,749.35Z" transform="translate(-20.86 -198)"/><line class="a" x1="471.41" y1="578.9" x2="471.41" y2="652.81"/><line class="a" x1="482.91" y1="578.9" x2="482.91" y2="652.81"/><rect class="b" x="208.63" y="317.76" width="95.26" height="372.83"/><path class="a" d="M277,565.68s-17.32,6.23-21.76,36.86v92.92h43.53V602.54C294.34,571.91,277,565.68,277,565.68Z" transform="translate(-20.86 -198)"/><path class="a" d="M277,574.43s-11.93,5.39-15,31.89v80.39h30V606.32C289,579.82,277,574.43,277,574.43Z" transform="translate(-20.86 -198)"/><line class="a" x1="250.51" y1="403.99" x2="250.51" y2="477.89"/><line class="a" x1="262" y1="403.99" x2="262" y2="477.89"/><path class="a" d="M277,739.78s-17.32,6.23-21.76,36.86v92.92h43.53V776.64C294.34,746,277,739.78,277,739.78Z" transform="translate(-20.86 -198)"/><path class="a" d="M277,748.53s-11.93,5.39-15,31.89v80.39h30V780.42C289,753.92,277,748.53,277,748.53Z" transform="translate(-20.86 -198)"/><line class="a" x1="250.51" y1="578.08" x2="250.51" y2="651.99"/><line class="a" x1="262" y1="578.08" x2="262" y2="651.99"/><line class="a" x1="208.63" y1="338.57" x2="303.89" y2="338.57"/><path class="c" d="M277.1,481.27s-7.23,7.26-9,13.91v20.17h17.67V495.18C283.94,488.53,277.1,481.27,277.1,481.27Z" transform="translate(-20.86 -198)"/><path class="d" d="M277.2,474.29S266.6,483,264,491.05v24.3h25.89v-24.3C287.21,483,277.2,474.29,277.2,474.29Z" transform="translate(-20.86 -198)"/><path class="a" d="M229.49,515.76s-4.93-89.52,14.78-140.43c0,0,20.53,26.28,15.72,140.43" transform="translate(-20.86 -198)"/><polyline class="a" points="201.23 257.81 209.07 257.81 224.23 242.21 239.83 257.81 246.4 257.81"/><path class="a" d="M223.82,255.35h0a7,7,0,0,1,7,7v55.43a0,0,0,0,1,0,0h-14a0,0,0,0,1,0,0V262.33a7,7,0,0,1,7-7Z"/><line class="a" x1="208.41" y1="272.18" x2="239.72" y2="272.18"/><line class="a" x1="201.23" y1="241.38" x2="210.24" y2="242.21"/><line class="a" x1="204.52" y1="224.14" x2="212.01" y2="226.25"/><line class="a" x1="206.98" y1="209.36" x2="214.33" y2="211.32"/><line class="a" x1="210.27" y1="194.58" x2="217.44" y2="196.65"/><line class="a" x1="214.37" y1="180.61" x2="221" y2="184.11"/><line class="a" x1="223.41" y1="177.33" x2="223.41" y2="171.58"/><line class="a" x1="226.92" y1="184.11" x2="232.44" y2="180.61"/><line class="a" x1="231.62" y1="197.04" x2="235.73" y2="194.58"/><line class="a" x1="234.39" y1="211.32" x2="239.83" y2="209.36"/><line class="a" x1="236.67" y1="226.25" x2="243.94" y2="224.14"/><path class="a" d="M324.75,515.76s4.93-89.52-14.78-140.43c0,0-20.53,26.28-15.72,140.43" transform="translate(-20.86 -198)"/><polyline class="a" points="311.28 257.81 303.44 257.81 288.28 242.21 272.68 257.81 266.11 257.81"/><path class="a" d="M302.58,453.35h14a0,0,0,0,1,0,0v55.43a7,7,0,0,1-7,7h0a7,7,0,0,1-7-7V453.35A0,0,0,0,1,302.58,453.35Z" transform="translate(598.25 771.1) rotate(180)"/><line class="a" x1="304.1" y1="272.18" x2="272.79" y2="272.18"/><line class="a" x1="311.28" y1="241.38" x2="302.27" y2="242.21"/><line class="a" x1="307.99" y1="224.14" x2="300.5" y2="226.25"/><line class="a" x1="305.53" y1="209.36" x2="298.18" y2="211.32"/><line class="a" x1="302.24" y1="194.58" x2="295.07" y2="196.65"/><line class="a" x1="298.14" y1="180.61" x2="291.51" y2="184.11"/><line class="a" x1="289.1" y1="177.33" x2="289.1" y2="171.58"/><line class="a" x1="285.59" y1="184.11" x2="280.07" y2="180.61"/><line class="a" x1="280.89" y1="197.04" x2="276.79" y2="194.58"/><line class="a" x1="278.12" y1="211.32" x2="272.68" y2="209.36"/><line class="a" x1="275.84" y1="226.25" x2="268.57" y2="224.14"/><ellipse class="a" cx="256.26" cy="260.27" rx="9.03" ry="9.85"/><line class="c" x1="238.11" y1="240.01" x2="274.4" y2="240.01"/><polyline class="c" points="233.67 207.62 256.67 41.42 278.84 207.62"/><line class="c" x1="256.67" y1="2" x2="256.67" y2="41.42"/><line class="c" x1="249.28" y1="17.6" x2="264.88" y2="17.6"/><path class="a" d="M560,634.42s-6.69,2.88-8.4,17v42.92h16.79V651.45C566.71,637.3,560,634.42,560,634.42Z" transform="translate(-20.86 -198)"/><path class="a" d="M560,627.85s-11.77,3.51-14.79,20.76v52.33h29.57V648.61C571.8,631.36,560,627.85,560,627.85Z" transform="translate(-20.86 -198)"/><path class="a" d="M590.41,634.42s-6.68,2.88-8.39,17v42.92h16.79V651.45C597.1,637.3,590.41,634.42,590.41,634.42Z" transform="translate(-20.86 -198)"/><path class="a" d="M590.41,627.85s-11.77,3.51-14.78,20.76v52.33h29.56V648.61C602.18,631.36,590.41,627.85,590.41,627.85Z" transform="translate(-20.86 -198)"/><path class="a" d="M575.12,739.78s-17.33,6.23-21.77,36.86v92.92h43.53V776.64C592.45,746,575.12,739.78,575.12,739.78Z" transform="translate(-20.86 -198)"/><path class="a" d="M575.12,748.53s-11.94,5.39-15,31.89v80.39h30V780.42C587.05,753.92,575.12,748.53,575.12,748.53Z" transform="translate(-20.86 -198)"/><line class="a" x1="548.61" y1="578.08" x2="548.61" y2="651.99"/><line class="a" x1="560.11" y1="578.08" x2="560.11" y2="651.99"/><path class="c" d="M574.38,565.85s-7.23,7.27-9,13.91v20.17H583V579.76C581.22,573.12,574.38,565.85,574.38,565.85Z" transform="translate(-20.86 -198)"/><path class="d" d="M574.48,558.87s-10.6,8.75-13.24,16.76v24.3h25.89v-24.3C584.49,567.62,574.48,558.87,574.48,558.87Z" transform="translate(-20.86 -198)"/><path class="a" d="M526.77,600.34s-4.93-89.51,14.78-140.43c0,0,20.53,26.28,15.72,140.43" transform="translate(-20.86 -198)"/><polyline class="a" points="498.51 342.39 506.36 342.39 521.51 326.79 537.11 342.39 543.68 342.39"/><path class="a" d="M521.1,339.93h0a7,7,0,0,1,7,7v55.43a0,0,0,0,1,0,0h-14a0,0,0,0,1,0,0V346.91A7,7,0,0,1,521.1,339.93Z"/><line class="a" x1="505.69" y1="356.77" x2="537" y2="356.77"/><line class="a" x1="498.51" y1="325.97" x2="507.52" y2="326.79"/><line class="a" x1="501.8" y1="308.72" x2="509.29" y2="310.83"/><line class="a" x1="504.26" y1="293.94" x2="511.61" y2="295.91"/><line class="a" x1="507.55" y1="279.16" x2="514.72" y2="281.23"/><line class="a" x1="511.65" y1="265.2" x2="518.28" y2="268.7"/><line class="a" x1="520.69" y1="261.91" x2="520.69" y2="256.17"/><line class="a" x1="524.2" y1="268.7" x2="529.72" y2="265.2"/><line class="a" x1="528.9" y1="281.62" x2="533.01" y2="279.16"/><line class="a" x1="531.67" y1="295.91" x2="537.11" y2="293.94"/><line class="a" x1="533.95" y1="310.83" x2="541.22" y2="308.72"/><path class="a" d="M622,600.34s4.93-89.51-14.78-140.43c0,0-20.53,26.28-15.72,140.43" transform="translate(-20.86 -198)"/><polyline class="a" points="608.56 342.39 600.72 342.39 585.56 326.79 569.96 342.39 563.39 342.39"/><path class="a" d="M599.86,537.93h14a0,0,0,0,1,0,0v55.43a7,7,0,0,1-7,7h0a7,7,0,0,1-7-7V537.93A0,0,0,0,1,599.86,537.93Z" transform="translate(1192.81 940.27) rotate(180)"/><line class="a" x1="601.38" y1="356.77" x2="570.07" y2="356.77"/><line class="a" x1="608.56" y1="325.97" x2="599.55" y2="326.79"/><line class="a" x1="605.27" y1="308.72" x2="597.78" y2="310.83"/><line class="a" x1="602.81" y1="293.94" x2="595.46" y2="295.91"/><line class="a" x1="599.52" y1="279.16" x2="592.35" y2="281.23"/><line class="a" x1="595.42" y1="265.2" x2="588.79" y2="268.7"/><line class="a" x1="586.38" y1="261.91" x2="586.38" y2="256.17"/><line class="a" x1="582.87" y1="268.7" x2="577.35" y2="265.2"/><line class="a" x1="578.17" y1="281.62" x2="574.07" y2="279.16"/><line class="a" x1="575.4" y1="295.91" x2="569.96" y2="293.94"/><line class="a" x1="573.12" y1="310.83" x2="565.85" y2="308.72"/><ellipse class="a" cx="553.54" cy="344.86" rx="9.03" ry="9.85"/><line class="c" x1="535.39" y1="324.6" x2="571.68" y2="324.6"/><polyline class="c" points="530.95 292.21 553.95 126 576.12 292.21"/><line class="c" x1="553.95" y1="86.59" x2="553.95" y2="126"/><line class="c" x1="546.56" y1="102.19" x2="562.16" y2="102.19"/><rect class="a" x="505.91" y="402.34" width="96.08" height="287.43"/><line class="a" x1="505.91" y1="422.13" x2="601.99" y2="422.13"/><line class="a" x1="303.89" y1="423.69" x2="505.91" y2="423.69"/><line class="a" x1="437.74" y1="509.92" x2="378.62" y2="509.92"/><line class="a" x1="601.99" y1="509.92" x2="448.42" y2="509.92"/><line class="a" x1="367.94" y1="509.92" x2="208.63" y2="509.92"/><polyline class="a" points="367.94 689.77 367.94 472.15 372.87 440.12 378.62 472.15 378.62 690.59"/><polyline class="a" points="437.74 689.77 437.74 472.15 442.67 440.12 448.42 472.15 448.42 690.59"/><rect class="a" x="709.57" y="631.74" width="35.31" height="58.31"/><rect class="a" x="787.58" y="631.74" width="35.31" height="58.31"/><rect class="a" x="865.6" y="631.74" width="35.31" height="58.31"/><rect class="d" x="938.69" y="522.24" width="12.32" height="12.32"/><rect class="d" x="660.29" y="522.24" width="12.32" height="12.32"/><ellipse class="d" cx="714.49" cy="472.92" rx="8.21" ry="9.39"/><ellipse class="d" cx="739.95" cy="472.92" rx="8.21" ry="9.39"/><ellipse class="d" cx="766.23" cy="472.92" rx="8.21" ry="9.39"/><ellipse class="d" cx="792.51" cy="472.92" rx="8.21" ry="9.39"/><ellipse class="d" cx="818.79" cy="472.92" rx="8.21" ry="9.39"/><ellipse class="d" cx="844.25" cy="472.92" rx="8.21" ry="9.39"/><ellipse class="d" cx="869.7" cy="472.92" rx="8.21" ry="9.39"/><ellipse class="d" cx="895.98" cy="472.92" rx="8.21" ry="9.39"/><path class="a" d="M658.16,645.51V583.17a66.14,66.14,0,0,0-.52-8.32c-1.68-13.45-6.87-55.12-6.87-55.81-12.32,87.05-7.39,138-7.39,138h-4.93l-9-53.38L622.85,657h29.56" transform="translate(-20.86 -198)"/><rect class="a" x="631.55" y="447.51" width="12.32" height="40.24"/><rect class="a" x="682.47" y="447.51" width="13.96" height="40.24"/><rect class="a" x="643.87" y="459.01" width="38.6" height="28.74"/><rect class="a" x="643.05" y="500.89" width="47.63" height="12.32"/><rect class="a" x="654.55" y="513.21" width="25.46" height="110.86"/><rect class="a" x="643.05" y="513.21" width="47.63" height="110.86"/><rect class="a" x="643.05" y="624.07" width="57.49" height="65.7"/><rect class="a" x="601.99" y="500.89" width="39.42" height="12.32"/><polyline class="a" points="601.99 487.75 631.55 487.75 637.71 487.75 643.05 500.89"/><line class="a" x1="696.43" y1="487.75" x2="690.68" y2="501.51"/><line class="a" x1="654.55" y1="544.38" x2="680" y2="544.38"/><line class="a" x1="654.55" y1="557.83" x2="680" y2="557.83"/><line class="a" x1="601.99" y1="624.07" x2="643.05" y2="624.07"/><rect class="a" x="649.62" y="406.45" width="27.1" height="36.95"/><line class="a" x1="643.87" y1="447.51" x2="649.62" y2="443.4"/><line class="a" x1="682.47" y1="447.51" x2="676.72" y2="443.4"/><path class="a" d="M674.77,604.45v-32s-12.5-9.85-12.5-18.89V533l14,22.18" transform="translate(-20.86 -198)"/><path class="a" d="M693.49,604.45v-32s9-6.57,12.3-17.24V533L691,555.18" transform="translate(-20.86 -198)"/><ellipse class="a" cx="662.76" cy="358" rx="7.39" ry="8.87"/><circle class="a" cx="663.58" cy="424.52" r="6.57"/><rect class="a" x="914.05" y="447.51" width="12.32" height="40.24"/><rect class="a" x="964.96" y="447.51" width="13.96" height="40.24"/><rect class="a" x="926.37" y="459.01" width="38.6" height="28.74"/><line class="a" x1="974.82" y1="487.75" x2="969.07" y2="501.51"/><line class="a" x1="1018.34" y1="487.75" x2="1012.6" y2="501.51"/><rect class="a" x="932.12" y="406.45" width="27.1" height="36.95"/><line class="a" x1="964.96" y1="447.51" x2="959.22" y2="443.4"/><path class="a" d="M957.26,604.45v-32s-12.49-9.85-12.49-18.89V533l14,22.18" transform="translate(-20.86 -198)"/><path class="a" d="M976,604.45v-32s9-6.57,12.3-17.24V533l-14.78,22.18" transform="translate(-20.86 -198)"/><ellipse class="a" cx="945.26" cy="358" rx="7.39" ry="8.87"/><circle class="a" cx="946.08" cy="424.52" r="6.57"/><rect class="d" x="937.04" y="522.24" width="12.32" height="12.32"/><rect class="a" x="919.8" y="500.89" width="47.63" height="12.32"/><rect class="a" x="931.29" y="513.21" width="25.46" height="110.86"/><rect class="a" x="919.8" y="513.21" width="47.63" height="110.86"/><rect class="a" x="909.94" y="624.07" width="57.49" height="65.7"/><line class="a" x1="931.29" y1="544.38" x2="956.75" y2="544.38"/><line class="a" x1="931.29" y1="557.83" x2="956.75" y2="557.83"/><rect class="a" x="978.93" y="459.01" width="33.67" height="28.74"/><rect class="a" x="689.86" y="500.89" width="322.74" height="12.32"/><line class="a" x1="755.55" y1="513.21" x2="755.55" y2="624.07"/><line class="a" x1="767.46" y1="513.21" x2="767.46" y2="624.07"/><line class="a" x1="779.37" y1="513.21" x2="779.37" y2="624.07"/><line class="a" x1="831.93" y1="513.21" x2="831.93" y2="624.07"/><line class="a" x1="843.84" y1="513.21" x2="843.84" y2="624.07"/><line class="a" x1="855.74" y1="513.21" x2="855.74" y2="624.07"/><polyline class="a" points="909.94 513.21 909.94 624.07 700.53 624.07 700.53 513.21"/><polyline class="a" points="690.68 487.75 878.74 487.75 908.3 487.75 914.46 487.75 919.8 500.89"/><line class="a" x1="696.43" y1="459.01" x2="914.05" y2="459.01"/><polyline class="a" points="674.4 443.4 932.12 443.4 926.37 447.51"/><polyline class="a" points="993.89 459.01 1000.28 406.45 1008.08 459.01"/><line class="a" x1="1012.6" y1="513.21" x2="1012.6" y2="689.77"/><line class="a" x1="967.43" y1="624.07" x2="1012.6" y2="624.07"/><polyline class="a" points="676.72 432.73 804.83 373.6 932.12 431.08"/><polyline class="a" points="790.05 362.92 790.05 335 818.79 335 818.79 362.92"/><path class="a" d="M762.89,600.58c9.83-24.15,34.61-41.3,63.62-41.3s53.89,17.21,63.68,41.45" transform="translate(-20.86 -198)"/><rect class="a" x="1023.27" y="450.79" width="418" height="238.97"/><rect class="a" x="1441.27" y="406.45" width="92.8" height="283.32"/><rect class="a" x="1064.33" y="356.35" width="249.65" height="76.37"/><rect class="a" x="1313.98" y="356.35" width="127.29" height="76.37"/><rect class="a" x="1356.68" y="537.02" width="177.38" height="153.57"/><rect class="a" x="1064.33" y="450.79" width="13.14" height="238.97"/><rect class="a" x="1107.04" y="450.79" width="13.14" height="238.97"/><line class="a" x1="1012.6" y1="522.24" x2="1023.27" y2="522.24"/><line class="a" x1="1064.33" y1="450.79" x2="1064.33" y2="432.73"/><polyline class="a" points="1064.33 356.36 1029.84 432.73 1008.08 450.79 1023.27 450.79"/><line class="a" x1="1068.39" y1="432.73" x2="1029.84" y2="432.73"/><line class="a" x1="1132.49" y1="602.72" x2="1534.07" y2="602.72"/><polyline class="a" points="1534.07 523.83 1553.78 523.88 1553.78 690.59 303.89 690.59"/><line class="a" x1="1441.27" y1="472.56" x2="1534.07" y2="472.56"/><rect class="a" x="1145.63" y="617.5" width="15.6" height="18.07"/><rect class="a" x="1173.83" y="617.5" width="15.6" height="18.07"/><rect class="a" x="1202.02" y="617.5" width="15.6" height="18.07"/><rect class="a" x="1230.22" y="617.5" width="15.6" height="18.07"/><rect class="a" x="1300.84" y="617.5" width="20.53" height="27.92"/><rect class="a" x="1288.52" y="656.1" width="12.32" height="22.17"/><rect class="a" x="1321.37" y="656.1" width="12.32" height="22.17"/><rect class="a" x="1370.65" y="618.32" width="13.14" height="13.14"/><rect class="a" x="1392.41" y="618.32" width="13.14" height="13.14"/><rect class="a" x="1414.17" y="618.32" width="13.14" height="13.14"/><polyline class="a" points="1132.49 690.59 1132.49 587.94 1145.63 587.94 1145.63 570.69 1196.55 544.41 1270.46 544.41 1270.46 689.77"/><path class="a" d="M1377.55,800.72s.82-50.92-42.71-50.92-43.52,50.51-43.52,50.51" transform="translate(-20.86 -198)"/><line class="a" x1="1313.98" y1="432.73" x2="1313.98" y2="551.8"/><path class="a" d="M1554.93,604.45V447.6H1536s2.46-33.67-27.92-33.67-26.28,33.67-26.28,33.67h-19.71V554.35" transform="translate(-20.86 -198)"/><line class="a" x1="1479.87" y1="272.59" x2="1479.87" y2="297.23"/><line class="a" x1="1496.29" y1="272.59" x2="1496.29" y2="297.23"/><path class="a" d="M1536,447.6h28.74s-39.41-32-36.13-96.09h-40.24s5.75,59.13-36.13,96.09h29.56" transform="translate(-20.86 -198)"/><path class="a" d="M1480.2,351.51h58.3L1518,336.73V307.17a9,9,0,0,0-9-9h0a9,9,0,0,0-9,9v29.56Z" transform="translate(-20.86 -198)"/><line class="a" x1="1479.05" y1="114.92" x2="1497.11" y2="114.92"/><line class="a" x1="1488.08" y1="64" x2="1488.08" y2="100.14"/><line class="a" x1="1479.05" y1="82.07" x2="1497.11" y2="82.07"/><polygon class="a" points="1072.73 113.38 1218.18 113.38 1204.26 166.11 1089.75 166.11 1072.73 113.38"/><polygon class="a" points="1028.11 166.11 1262.8 166.11 1240.33 227.4 1051.19 227.42 1028.11 166.11"/><rect class="a" x="1094.53" y="227.47" width="101.85" height="129.3"/><rect class="a" x="1092.02" y="94.78" width="106.86" height="18.39"/><rect class="a" x="1119.6" y="54.56" width="51.71" height="9.19"/><rect class="a" x="1142.01" y="63.75" width="6.89" height="31.03"/><rect class="a" x="1131.26" y="174.46" width="28.74" height="41.06"/><polygon class="a" points="1234.73 215.52 1205.99 215.52 1220.77 174.46 1249.52 174.46 1234.73 215.52"/><polygon class="a" points="1056.53 215.52 1085.27 215.52 1070.49 174.46 1041.75 174.46 1056.53 215.52"/><polygon class="a" points="1196.55 215.52 1167.81 215.52 1176.84 174.46 1205.58 174.46 1196.55 215.52"/><polygon class="a" points="1094.72 215.52 1123.46 215.52 1114.43 174.46 1085.68 174.46 1094.72 215.52"/></svg>